<svg width="186" height="35" viewBox="0 0 186 35" fill="none" xmlns="http://www.w3.org/2000/svg">
<path d="M0 12C0 5.37258 5.37258 0 12 0H174C180.627 0 186 5.37258 186 12V23C186 29.6274 180.627 35 174 35H12C5.37258 35 0 29.6274 0 23V12Z" fill="url(#paint0_linear_198_220)"/>
<path d="M53.0708 14.6378C53.014 14.0649 52.7702 13.6198 52.3393 13.3026C51.9084 12.9853 51.3237 12.8267 50.585 12.8267C50.0832 12.8267 49.6594 12.8977 49.3137 13.0398C48.9681 13.1771 48.7029 13.3688 48.5183 13.6151C48.3384 13.8613 48.2484 14.1406 48.2484 14.4531C48.2389 14.7135 48.2934 14.9408 48.4118 15.1349C48.5349 15.3291 48.7029 15.4972 48.916 15.6392C49.1291 15.7765 49.3753 15.8973 49.6547 16.0014C49.934 16.1009 50.2323 16.1861 50.5495 16.2571L51.8564 16.5696C52.4908 16.7116 53.0732 16.901 53.6035 17.1378C54.1338 17.3745 54.5931 17.6657 54.9814 18.0114C55.3696 18.357 55.6703 18.7642 55.8833 19.233C56.1011 19.7017 56.2124 20.2391 56.2172 20.8452C56.2124 21.7353 55.9851 22.5071 55.5353 23.1605C55.0903 23.8092 54.4463 24.3134 53.6035 24.6733C52.7654 25.0284 51.7546 25.206 50.5708 25.206C49.3966 25.206 48.3739 25.026 47.5027 24.6662C46.6362 24.3063 45.9591 23.7737 45.4714 23.0682C44.9885 22.358 44.7351 21.4796 44.7115 20.4332H47.6873C47.7205 20.9209 47.8601 21.3281 48.1064 21.6548C48.3573 21.9768 48.6911 22.2206 49.1078 22.3864C49.5292 22.5473 50.005 22.6278 50.5353 22.6278C51.0562 22.6278 51.5083 22.5521 51.8919 22.4006C52.2801 22.2491 52.5808 22.0384 52.7939 21.7685C53.0069 21.4986 53.1135 21.1884 53.1135 20.8381C53.1135 20.5114 53.0164 20.2367 52.8223 20.0142C52.6329 19.7917 52.3535 19.6023 51.9842 19.446C51.6196 19.2898 51.1722 19.1477 50.6419 19.0199L49.0581 18.6222C47.8317 18.3239 46.8635 17.8575 46.1532 17.223C45.443 16.5885 45.0903 15.7339 45.095 14.6591C45.0903 13.7784 45.3246 13.009 45.7981 12.3509C46.2763 11.6927 46.9321 11.179 47.7654 10.8097C48.5988 10.4403 49.5458 10.2557 50.6064 10.2557C51.6859 10.2557 52.6281 10.4403 53.4331 10.8097C54.2427 11.179 54.8725 11.6927 55.3223 12.3509C55.7721 13.009 56.0041 13.7713 56.0183 14.6378H53.0708ZM63.2005 25.2131C62.0783 25.2131 61.1124 24.9858 60.3027 24.5312C59.4978 24.072 58.8775 23.4233 58.4419 22.5852C58.0063 21.7424 57.7885 20.7457 57.7885 19.5952C57.7885 18.473 58.0063 17.4882 58.4419 16.6406C58.8775 15.7931 59.4907 15.1326 60.2814 14.6591C61.0769 14.1856 62.0096 13.9489 63.0797 13.9489C63.7994 13.9489 64.4694 14.0649 65.0897 14.2969C65.7147 14.5241 66.2592 14.8674 66.7232 15.3267C67.1919 15.786 67.5565 16.3636 67.8169 17.0597C68.0774 17.7509 68.2076 18.5606 68.2076 19.4886V20.3196H58.9959V18.4446H65.3596C65.3596 18.009 65.2649 17.6231 65.0755 17.2869C64.8861 16.9508 64.6233 16.688 64.2871 16.4986C63.9557 16.3045 63.5698 16.2074 63.1294 16.2074C62.6702 16.2074 62.263 16.3139 61.9078 16.527C61.5575 16.7353 61.2828 17.017 61.084 17.3722C60.8851 17.7225 60.7833 18.1132 60.7786 18.544V20.3267C60.7786 20.8665 60.878 21.3329 61.0769 21.7259C61.2805 22.1188 61.5669 22.4219 61.9363 22.6349C62.3056 22.848 62.7435 22.9545 63.2502 22.9545C63.5864 22.9545 63.8941 22.9072 64.1735 22.8125C64.4528 22.7178 64.6919 22.5758 64.8908 22.3864C65.0897 22.197 65.2412 21.965 65.3453 21.6903L68.1436 21.875C68.0016 22.5473 67.7104 23.1345 67.2701 23.6364C66.8345 24.1335 66.271 24.5218 65.5797 24.8011C64.8932 25.0758 64.1001 25.2131 63.2005 25.2131ZM73.2076 10.4545V25H70.182V10.4545H73.2076ZM80.6028 25.2131C79.4806 25.2131 78.5147 24.9858 77.7051 24.5312C76.9002 24.072 76.2799 23.4233 75.8443 22.5852C75.4087 21.7424 75.1909 20.7457 75.1909 19.5952C75.1909 18.473 75.4087 17.4882 75.8443 16.6406C76.2799 15.7931 76.8931 15.1326 77.6838 14.6591C78.4792 14.1856 79.412 13.9489 80.4821 13.9489C81.2018 13.9489 81.8717 14.0649 82.492 14.2969C83.117 14.5241 83.6615 14.8674 84.1255 15.3267C84.5943 15.786 84.9589 16.3636 85.2193 17.0597C85.4797 17.7509 85.6099 18.5606 85.6099 19.4886V20.3196H76.3983V18.4446H82.7619C82.7619 18.009 82.6672 17.6231 82.4778 17.2869C82.2884 16.9508 82.0256 16.688 81.6895 16.4986C81.358 16.3045 80.9721 16.2074 80.5318 16.2074C80.0725 16.2074 79.6653 16.3139 79.3102 16.527C78.9598 16.7353 78.6852 17.017 78.4863 17.3722C78.2875 17.7225 78.1857 18.1132 78.1809 18.544V20.3267C78.1809 20.8665 78.2804 21.3329 78.4792 21.7259C78.6828 22.1188 78.9693 22.4219 79.3386 22.6349C79.7079 22.848 80.1459 22.9545 80.6525 22.9545C80.9887 22.9545 81.2965 22.9072 81.5758 22.8125C81.8552 22.7178 82.0943 22.5758 82.2931 22.3864C82.492 22.197 82.6435 21.965 82.7477 21.6903L85.546 21.875C85.4039 22.5473 85.1127 23.1345 84.6724 23.6364C84.2368 24.1335 83.6734 24.5218 82.9821 24.8011C82.2955 25.0758 81.5024 25.2131 80.6028 25.2131ZM92.5133 25.2131C91.3959 25.2131 90.4347 24.9763 89.6298 24.5028C88.8296 24.0246 88.2141 23.3617 87.7832 22.5142C87.3571 21.6667 87.144 20.6913 87.144 19.5881C87.144 18.4706 87.3594 17.4905 87.7903 16.6477C88.2259 15.8002 88.8438 15.1397 89.644 14.6662C90.4442 14.188 91.3959 13.9489 92.4991 13.9489C93.4508 13.9489 94.2842 14.1217 94.9991 14.4673C95.7141 14.813 96.2799 15.2983 96.6966 15.9233C97.1132 16.5483 97.3429 17.2822 97.3855 18.125H94.5304C94.4499 17.5805 94.2368 17.1425 93.8912 16.8111C93.5502 16.4749 93.1028 16.3068 92.5488 16.3068C92.0801 16.3068 91.6705 16.4347 91.3201 16.6903C90.9745 16.9413 90.7046 17.3082 90.5105 17.7912C90.3163 18.2741 90.2193 18.8589 90.2193 19.5455C90.2193 20.2415 90.314 20.8333 90.5034 21.321C90.6975 21.8087 90.9698 22.1804 91.3201 22.4361C91.6705 22.6918 92.0801 22.8196 92.5488 22.8196C92.8945 22.8196 93.2046 22.7486 93.4792 22.6065C93.7586 22.4645 93.9882 22.2585 94.1681 21.9886C94.3528 21.714 94.4735 21.3849 94.5304 21.0014H97.3855C97.3381 21.8348 97.1109 22.5687 96.7037 23.2031C96.3012 23.8329 95.7449 24.3253 95.0346 24.6804C94.3244 25.0355 93.484 25.2131 92.5133 25.2131ZM105.125 14.0909V16.3636H98.5556V14.0909H105.125ZM100.047 11.4773H103.073V21.6477C103.073 21.9271 103.115 22.1449 103.2 22.3011C103.286 22.4527 103.404 22.5592 103.556 22.6207C103.712 22.6823 103.892 22.7131 104.095 22.7131C104.237 22.7131 104.379 22.7012 104.521 22.6776C104.664 22.6491 104.772 22.6278 104.848 22.6136L105.324 24.8651C105.173 24.9124 104.959 24.9669 104.685 25.0284C104.41 25.0947 104.076 25.1349 103.683 25.1491C102.954 25.1776 102.315 25.0805 101.766 24.858C101.221 24.6354 100.798 24.2898 100.494 23.821C100.191 23.3523 100.042 22.7604 100.047 22.0455V11.4773ZM117.591 14.0909V16.3636H110.858V14.0909H117.591ZM112.4 25V13.3026C112.4 12.5118 112.554 11.8561 112.861 11.3352C113.174 10.8144 113.6 10.4238 114.14 10.1634C114.68 9.90293 115.293 9.77273 115.979 9.77273C116.443 9.77273 116.867 9.80824 117.251 9.87926C117.639 9.95028 117.928 10.0142 118.117 10.071L117.577 12.3438C117.459 12.3059 117.312 12.2704 117.137 12.2372C116.966 12.2041 116.791 12.1875 116.611 12.1875C116.166 12.1875 115.856 12.2917 115.681 12.5C115.506 12.7036 115.418 12.9901 115.418 13.3594V25H112.4ZM119.44 25V14.0909H122.465V25H119.44ZM120.96 12.6847C120.51 12.6847 120.124 12.5355 119.802 12.2372C119.485 11.9342 119.326 11.572 119.326 11.1506C119.326 10.7339 119.485 10.3764 119.802 10.0781C120.124 9.77509 120.51 9.62358 120.96 9.62358C121.41 9.62358 121.793 9.77509 122.11 10.0781C122.432 10.3764 122.593 10.7339 122.593 11.1506C122.593 11.572 122.432 11.9342 122.11 12.2372C121.793 12.5355 121.41 12.6847 120.96 12.6847ZM127.915 10.4545V25H124.889V10.4545H127.915ZM135.31 25.2131C134.188 25.2131 133.222 24.9858 132.412 24.5312C131.607 24.072 130.987 23.4233 130.551 22.5852C130.116 21.7424 129.898 20.7457 129.898 19.5952C129.898 18.473 130.116 17.4882 130.551 16.6406C130.987 15.7931 131.6 15.1326 132.391 14.6591C133.186 14.1856 134.119 13.9489 135.189 13.9489C135.909 13.9489 136.579 14.0649 137.199 14.2969C137.824 14.5241 138.369 14.8674 138.833 15.3267C139.301 15.786 139.666 16.3636 139.926 17.0597C140.187 17.7509 140.317 18.5606 140.317 19.4886V20.3196H131.105V18.4446H137.469C137.469 18.009 137.374 17.6231 137.185 17.2869C136.995 16.9508 136.733 16.688 136.396 16.4986C136.065 16.3045 135.679 16.2074 135.239 16.2074C134.78 16.2074 134.372 16.3139 134.017 16.527C133.667 16.7353 133.392 17.017 133.193 17.3722C132.994 17.7225 132.893 18.1132 132.888 18.544V20.3267C132.888 20.8665 132.987 21.3329 133.186 21.7259C133.39 22.1188 133.676 22.4219 134.046 22.6349C134.415 22.848 134.853 22.9545 135.36 22.9545C135.696 22.9545 136.003 22.9072 136.283 22.8125C136.562 22.7178 136.801 22.5758 137 22.3864C137.199 22.197 137.351 21.965 137.455 21.6903L140.253 21.875C140.111 22.5473 139.82 23.1345 139.379 23.6364C138.944 24.1335 138.38 24.5218 137.689 24.8011C137.003 25.0758 136.209 25.2131 135.31 25.2131Z" fill="white"/>
<defs>
<linearGradient id="paint0_linear_198_220" x1="0" y1="17.5" x2="186" y2="17.5" gradientUnits="userSpaceOnUse">
<stop stop-color="#8B5CF6"/>
<stop offset="1" stop-color="#3B82F6"/>
</linearGradient>
</defs>
</svg>
